<svg xmlns="http://www.w3.org/2000/svg" viewBox="0 0 273.412 273.412"><g fill="#ffffff"><path d="M229.664 161.947a5.433 5.433 0 0 0-7.691 0 5.439 5.439 0 0 0 0 7.696l33.809 33.815h-61.614c-2.29-.555-4.765-1.3-5.276-1.556-.903-.685-3.65-4.041-5.869-7.185a4.89 4.89 0 0 0-.473-.577L70.866 74.759c-1.779-2.54-5.711-7.865-8.474-9.709-2.295-1.528-7.267-2.752-10.03-3.345a5.112 5.112 0 0 0-1.148-.12H5.439A5.434 5.434 0 0 0 0 67.024a5.438 5.438 0 0 0 5.439 5.439h45.182c2.458.555 5.14 1.338 5.695 1.615.914.685 3.644 4.063 5.847 7.223.147.218.315.419.495.609l111.697 119.393c1.779 2.502 5.711 7.778 8.452 9.611 2.187 1.469 6.908 2.687 9.518 3.285a5.41 5.41 0 0 0 1.213.136h60.357l-28.805 28.811a5.433 5.433 0 0 0 0 7.691c1.061 1.061 2.453 1.594 3.845 1.594s2.785-.533 3.845-1.594l39.036-39.036a5.439 5.439 0 0 0 0-7.696l-42.152-42.158z"/><path d="M62.658 193.999a6.619 6.619 0 0 0-.495.609c-2.192 3.16-4.928 6.532-5.678 7.12-.707.375-3.399 1.164-5.863 1.724H5.439A5.434 5.434 0 0 0 0 208.891a5.438 5.438 0 0 0 5.439 5.439h45.775c.381 0 .772-.044 1.148-.125 2.763-.593 7.734-1.817 10.03-3.35 2.763-1.844 6.69-7.169 8.474-9.709l41.125-43.953-7.452-7.963-41.881 44.769zM182.551 81.775c.169-.185.332-.375.473-.577 2.219-3.149 4.966-6.5 5.711-7.082.658-.354 3.144-1.104 5.434-1.659h62.223l-31.307 31.313a5.433 5.433 0 0 0 0 7.691c1.061 1.061 2.453 1.594 3.845 1.594s2.785-.533 3.845-1.594l39.036-39.036a5.439 5.439 0 0 0 0-7.696l-1.556-1.556v-.005l-40.592-40.592a5.433 5.433 0 0 0-7.691 0 5.439 5.439 0 0 0 0 7.696l31.307 31.313h-59.748c-.402 0-.805.044-1.213.131-2.611.598-7.332 1.817-9.518 3.285-2.736 1.833-6.674 7.109-8.452 9.611l-41.255 44.094 7.446 7.963 42.012-44.894z"/></g></svg>